# xmcd
# Copyright (C) 1995-1998 Ti Kan
#
# Track frame offsets:
#       150
#       135314
#       270376
#
# Disc length: 3763 seconds
#
# Revision: 0
# Processed by: cddbd v1.5.2PL0 Copyright (c) Steve Scherf et al.
# Submitted via: CD-Import v1.0
#
DISCID=1d0eb103
DTITLE=Lokalfilter - 
DYEAR=1900
DGENRE=
TTITLE0=Lokalfilter Roman Weissert 3
TTITLE1=Lokalfilter Roman Weissert 4
TTITLE2=Lokalfilter Roman Weissert 5
EXTD=
EXTT0=
EXTT1=
EXTT2=
PLAYORDER=
